<?xml version="1.0" encoding="UTF-8"?>
<svg version="1.1" xmlns="http://www.w3.org/2000/svg" width="512" height="512">
<path d="M0 0 C168.96 0 337.92 0 512 0 C512 168.96 512 337.92 512 512 C343.04 512 174.08 512 0 512 C0 343.04 0 174.08 0 0 Z " fill="#10100F" transform="translate(0,0)"/>
<path d="M0 0 C0.91458984 -0.01611328 1.82917969 -0.03222656 2.77148438 -0.04882812 C7.73486796 -0.05243786 11.18188049 0.05408259 15.1875 3.3125 C20.79516191 9.05057265 22.25402967 14.13919805 22.5 22 C22.18625543 36.89363939 15.91616331 52.68966065 8.1875 65.3125 C8.74099121 65.33231934 9.29448242 65.35213867 9.86474609 65.37255859 C28.0688514 66.05829076 43.71490751 67.79326759 59.1875 78.3125 C59.80238281 78.72886719 60.41726563 79.14523438 61.05078125 79.57421875 C73.02136853 88.7379097 80.22068635 104.73333022 82.1875 119.3125 C82.53688477 124.50228213 82.62666082 129.67610431 82.625 134.875 C82.6260675 135.58393402 82.62713501 136.29286804 82.62823486 137.02328491 C82.60407175 148.13408059 81.70678673 158.05443648 77.1875 168.3125 C76.74148438 169.33601562 76.29546875 170.35953125 75.8359375 171.4140625 C69.15097104 184.97072633 57.20967307 195.75302902 43.10002136 201.10418701 C30.24559872 205.33369406 18.23149519 205.84501523 4.8125 205.375 C-10.81707117 204.78576976 -10.81707117 204.78576976 -25.9597168 208.28808594 C-34.36924241 211.30788649 -43.02262544 211.65331854 -51.875 211.625 C-52.88626953 211.64111328 -53.89753906 211.65722656 -54.93945312 211.67382812 C-67.52534886 211.68193237 -78.76869313 207.58496999 -88.18359375 199.109375 C-98.22260347 188.03516764 -100.67450843 174.27907712 -100.34765625 159.828125 C-99.31540169 143.94463149 -91.50884408 128.03800914 -83.8125 114.3125 C-83.35246582 113.49056152 -82.89243164 112.66862305 -82.41845703 111.82177734 C-80.29530632 108.04217043 -78.16190351 104.26865716 -76.01293945 100.50366211 C-71.21603708 92.09108686 -66.62171693 83.5790462 -62.06420898 75.03491211 C-58.62897604 68.61694303 -55.09430358 62.27080707 -51.45776367 55.96484375 C-41.28816551 40.15926817 -41.28816551 40.15926817 -38.8125 22.3125 C-41.03113029 19.40532927 -42.33194929 18.47268357 -45.8125 17.3125 C-45.8125 14.3425 -45.8125 11.3725 -45.8125 8.3125 C-41.85494647 7.35092757 -37.89631991 6.39384414 -33.9375 5.4375 C-32.27460938 5.03337891 -32.27460938 5.03337891 -30.578125 4.62109375 C-27.32618561 3.83680249 -24.07091384 3.06941272 -20.8125 2.3125 C-19.49004272 2.00034546 -19.49004272 2.00034546 -18.14086914 1.68188477 C-12.05979581 0.34127496 -6.21835317 -0.02238428 0 0 Z " fill="#C7B202" transform="translate(243.8125,163.6875)"/>
<path d="M0 0 C0.10957031 0.79921875 0.21914063 1.5984375 0.33203125 2.421875 C2.06630739 14.4349097 4.5690404 25.09514831 10 36 C0.16453327 40.89289633 -9.28085137 43.25340829 -20.25 43.375 C-20.99435303 43.38885742 -21.73870605 43.40271484 -22.50561523 43.41699219 C-30.73951765 43.34746918 -37.10560091 40.7437536 -43.16796875 35.18359375 C-46.43828972 31.28570585 -48.2224925 26.72577715 -50 22 C-62.00530427 22.38355605 -73.82182506 23.95147079 -85.70166016 25.62792969 C-86.95897949 25.80356445 -88.21629883 25.97919922 -89.51171875 26.16015625 C-90.64053467 26.32136963 -91.76935059 26.48258301 -92.93237305 26.64868164 C-95.65925746 26.96097664 -98.25952351 27.06867962 -101 27 C-100.87625 27.804375 -100.7525 28.60875 -100.625 29.4375 C-101.2727574 35.5911953 -104.6379432 39.86776494 -109.16796875 43.95703125 C-120.5611501 52.4879778 -133.88856632 56.25471177 -148 55 C-151.51082266 53.97712673 -154.73939486 52.64870328 -158 51 C-157.50628906 49.81921875 -157.01257813 48.6384375 -156.50390625 47.421875 C-155.85662369 45.86464449 -155.20949639 44.30734943 -154.5625 42.75 C-154.07426758 41.58404297 -154.07426758 41.58404297 -153.57617188 40.39453125 C-153.26357422 39.64042969 -152.95097656 38.88632813 -152.62890625 38.109375 C-152.1968689 37.07248535 -152.1968689 37.07248535 -151.75610352 36.01464844 C-150.44411043 32.51882443 -149.86174983 29.4174217 -149.875 25.6875 C-149.87242187 24.96949219 -149.86984375 24.25148438 -149.8671875 23.51171875 C-150.03668486 20.3062245 -150.53310581 17.17437046 -151 14 C-132.64146794 12.16925022 -114.28243835 10.34357075 -95.92280674 8.52388 C-87.39759789 7.67879656 -78.87255807 6.83207211 -70.34790039 5.98144531 C-62.91541883 5.23980476 -55.48263502 4.50128302 -48.04947609 3.76646137 C-44.11588451 3.37748853 -40.18245881 2.98698512 -36.24939156 2.59274292 C-32.54229156 2.22120104 -28.83479922 1.85385228 -25.12697411 1.48962021 C-23.12811713 1.29219191 -21.1296921 1.09040543 -19.13128662 0.88845825 C-12.71719472 0.26256398 -6.44451879 -0.14293697 0 0 Z " fill="#C6B102" transform="translate(330,100)"/>
<path d="M0 0 C0.09796875 0.76441406 0.1959375 1.52882813 0.296875 2.31640625 C1.87652107 13.63266387 4.30691304 24.54417663 9 35 C0.92793141 41.00230741 -6.99018896 42.51343367 -16.9375 42.4375 C-18.32485352 42.4674707 -18.32485352 42.4674707 -19.74023438 42.49804688 C-27.69719621 42.49247087 -34.91249262 40.54735844 -41.375 35.75 C-45.13504293 31.81090741 -48 27.56062851 -48 22 C-48.57549591 22.0501123 -49.15099182 22.10022461 -49.743927 22.15185547 C-55.74601225 22.67398827 -61.74840092 23.19252045 -67.75097656 23.70898438 C-69.98966285 23.90207512 -72.22827076 24.09607676 -74.46679688 24.29101562 C-77.68859904 24.57142114 -80.91067093 24.84852523 -84.1328125 25.125 C-85.12991241 25.21249512 -86.12701233 25.29999023 -87.15432739 25.39013672 C-91.78497958 25.78442467 -96.34705642 26.10964226 -101 26 C-101.03867188 26.97839844 -101.03867188 26.97839844 -101.078125 27.9765625 C-101.56616088 35.49675171 -103.53483352 39.79727863 -109 45.0625 C-118.0692429 52.4898972 -129.09476401 54.15935775 -140.4375 54.3125 C-141.14970703 54.34150391 -141.86191406 54.37050781 -142.59570312 54.40039062 C-148.36543257 54.4685164 -152.00225957 52.85665659 -157 50 C-156.4225 48.97261719 -155.845 47.94523437 -155.25 46.88671875 C-150.8505627 38.78759871 -147.63840736 32.43288924 -149 23 C-149.33982335 20.33412727 -149.66883561 17.66696817 -150 15 C-148.81221954 14.87916046 -147.62443909 14.75832092 -146.40066528 14.63381958 C-135.13361491 13.48744949 -123.86665468 12.34019704 -112.59977913 11.19211006 C-106.80923929 10.60208583 -101.0186696 10.01235815 -95.22802734 9.42333984 C-89.62581979 8.85347737 -84.02369633 8.28279461 -78.42162704 7.71157455 C-76.29856129 7.49523376 -74.17546683 7.27917434 -72.05234146 7.06341934 C-60.66905772 5.90643828 -49.29055692 4.72082143 -37.9208374 3.43688965 C-31.32701607 2.70215572 -24.72661528 2.03583585 -18.125 1.375 C-16.79556958 1.23961614 -15.46614249 1.10419949 -14.13671875 0.96875 C-12.87730469 0.84242188 -11.61789062 0.71609375 -10.3203125 0.5859375 C-9.19898926 0.4729834 -8.07766602 0.3600293 -6.92236328 0.24365234 C-4 0 -4 0 0 0 Z " fill="#C6B102" transform="translate(300,388)"/>
<path d="M0 0 C3.97527463 -0.47324698 5.66269406 -0.22028143 9.0625 2 C20.76823122 12.94164955 23.55510567 30.99894531 24.32421875 46.28125 C24.79460038 61.97971338 24.3033946 82.75448949 13.1484375 95.0390625 C4.70315759 102.96262628 -4.18438309 104.34486667 -15.48828125 104.203125 C-22.52613229 103.79604129 -27.06560562 102.40881304 -31.9375 97.1875 C-37.47234594 90.63204417 -37.83577885 82.77313469 -37.5546875 74.546875 C-36.9678323 67.6155604 -33.73717898 62.20184844 -30.30078125 56.2890625 C-28.34493149 52.84723679 -26.56006884 49.32148911 -24.75317383 45.79980469 C-16.81987354 30.36356342 -8.44369098 15.16146307 0 0 Z " fill="#11110F" transform="translate(242,248)"/>
</svg>
